/* XPM */
static char *e5c9ec6e2ca64996dbec1377eabc3eadqmA0eFlg5oWZUWRr[] = {
/* columns rows colors chars-per-pixel */
"64 64 2 1 ",
"  c None",
". c blue",
/* pixels */
"                                                                ",
"                                                                ",
"                                                                ",
"                                                                ",
"                                                                ",
"                                                                ",
"                                                                ",
"                                                                ",
"                                                                ",
"                                                                ",
"                                                                ",
"                                                                ",
"                                                                ",
"                                                                ",
"                                                                ",
"                                                                ",
"                                                                ",
"                                                                ",
"                                                                ",
"                                                                ",
"                                                                ",
"                                                                ",
"                     ......................                     ",
"                     ......................                     ",
"                     ......................                     ",
"                     ......................                     ",
"                     ......................                     ",
"                     ......................                     ",
"                     ......................                     ",
"                     ......................                     ",
"                     ......................                     ",
"                     ......................                     ",
"                     ......................                     ",
"                     ......................                     ",
"                     ......................                     ",
"                     ......................                     ",
"                     ......................                     ",
"                     ......................                     ",
"                     ......................                     ",
"                     ......................                     ",
"                     ......................                     ",
"                     ......................                     ",
"                                                                ",
"                                                                ",
"                                                                ",
"                                                                ",
"                                                                ",
"                                                                ",
"                                                                ",
"                                                                ",
"                                                                ",
"                                                                ",
"                                                                ",
"                                                                ",
"                                                                ",
"                                                                ",
"                                                                ",
"                                                                ",
"                                                                ",
"                                                                ",
"                                                                ",
"                                                                ",
"                                                                ",
"                                                                "
};
