/* XPM */
static char *result[] = {
/* columns rows colors chars-per-pixel */
"64 64 3 1 ",
"  c yellow",
". c #C39696",
"X c None",
/* pixels */
"XXXXXXXXXXXXXXXXXXXXXXXXXXX..XXXXXX..XXXXXXXXXXXXXXXXXXXXXXXXXXX",
"XXXXXXXXXXXXXXXXXXXXXXXXXXX..XXXXXX..XXXXXXXXXXXXXXXXXXXXXXXXXXX",
"XXXXXXXXXXXXXXXXXXXXXXXXXXX..XXXXXX..XXXXXXXXXXXXXXXXXXXXXXXXXXX",
"XXXXXXXXXXXXXXXXXXXXXXXXXXX..XXXXXX..XXXXXXXXXXXXXXXXXXXXXXXXXXX",
"XXXXXXXXXXXXXXXXXXXXXXXXXXX..XXXXXX..XXXXXXXXXXXXXXXXXXXXXXXXXXX",
"XXXXXXXXXXXXXXXXXXXXXXXXXXX..XXXXXX..XXXXXXXXXXXXXXXXXXXXXXXXXXX",
"XXXXXXXXXXXXXXXXXXXXXXXXXXX..XXXXXX..XXXXXXXXXXXXXXXXXXXXXXXXXXX",
"XXXXXXXXXXXXXXXXXXXXXXXXXXX          XXXXXXXXXXXXXXXXXXXXXXXXXXX",
"XXXXXXXXXXXXXXXXXXXXXXXXXXX          XXXXXXXXXXXXXXXXXXXXXXXXXXX",
"XXXXXXXXXXXXXXXXXXXXXXXXXXX          XXXXXXXXXXXXXXXXXXXXXXXXXXX",
"XXXXXXXXXXXXXXXXXXXXXXXXXXX          XXXXXXXXXXXXXXXXXXXXXXXXXXX",
"XXXXXXXXXXXXXXXXXXXXXXXXXXX          XXXXXXXXXXXXXXXXXXXXXXXXXXX",
"XXXXXXXXXXXXXXXXXXXXXXXXXXX          XXXXXXXXXXXXXXXXXXXXXXXXXXX",
"XXXXXXXXXXXXXXXXXXXXXXXXXXX          XXXXXXXXXXXXXXXXXXXXXXXXXXX",
"XXXXXXXXXXXXXXXXXXXXXXXXXXX          XXXXXXXXXXXXXXXXXXXXXXXXXXX",
"XXXXXXXXXXXXXXXXXXXXXXXXXXX          XXXXXXXXXXXXXXXXXXXXXXXXXXX",
"XXXXXXXXXXXXXXXXXXXXXXXXXXX          XXXXXXXXXXXXXXXXXXXXXXXXXXX",
"XXXXXXXXXXXXXXXXX                              XXXXXXXXXXXXXXXXX",
"XXXXXXXXXXXXXXXXX                              XXXXXXXXXXXXXXXXX",
"XXXXXXXXXXXXXXXXX                              XXXXXXXXXXXXXXXXX",
"XXXXXXXXXXXXXXXXX                              XXXXXXXXXXXXXXXXX",
"XXXXXXXXXXXXXXXXX                              XXXXXXXXXXXXXXXXX",
"XXXXXXXXXXXXXXXXX                              XXXXXXXXXXXXXXXXX",
"XXXXXXXXXXXXXXXXX                              XXXXXXXXXXXXXXXXX",
"XXXXXXXXXXXXXXXXX                              XXXXXXXXXXXXXXXXX",
"XXXXXXXXXXXXXXXXX                              XXXXXXXXXXXXXXXXX",
"XXXXXXXXXXXXXXXXX                              XXXXXXXXXXXXXXXXX",
".......                                                  .......",
".......                                                  .......",
"XXXXXXX                                                  XXXXXXX",
"XXXXXXX                                                  XXXXXXX",
"XXXXXXX                                                  XXXXXXX",
"XXXXXXX                                                  XXXXXXX",
"XXXXXXX                                                  XXXXXXX",
"XXXXXXX                                                  XXXXXXX",
".......                                                  .......",
".......                                                  .......",
"XXXXXXXXXXXXXXXXX                              XXXXXXXXXXXXXXXXX",
"XXXXXXXXXXXXXXXXX                              XXXXXXXXXXXXXXXXX",
"XXXXXXXXXXXXXXXXX                              XXXXXXXXXXXXXXXXX",
"XXXXXXXXXXXXXXXXX                              XXXXXXXXXXXXXXXXX",
"XXXXXXXXXXXXXXXXX                              XXXXXXXXXXXXXXXXX",
"XXXXXXXXXXXXXXXXX                              XXXXXXXXXXXXXXXXX",
"XXXXXXXXXXXXXXXXX                              XXXXXXXXXXXXXXXXX",
"XXXXXXXXXXXXXXXXX                              XXXXXXXXXXXXXXXXX",
"XXXXXXXXXXXXXXXXX                              XXXXXXXXXXXXXXXXX",
"XXXXXXXXXXXXXXXXX                              XXXXXXXXXXXXXXXXX",
"XXXXXXXXXXXXXXXXXXXXXXXXXXX          XXXXXXXXXXXXXXXXXXXXXXXXXXX",
"XXXXXXXXXXXXXXXXXXXXXXXXXXX          XXXXXXXXXXXXXXXXXXXXXXXXXXX",
"XXXXXXXXXXXXXXXXXXXXXXXXXXX          XXXXXXXXXXXXXXXXXXXXXXXXXXX",
"XXXXXXXXXXXXXXXXXXXXXXXXXXX          XXXXXXXXXXXXXXXXXXXXXXXXXXX",
"XXXXXXXXXXXXXXXXXXXXXXXXXXX          XXXXXXXXXXXXXXXXXXXXXXXXXXX",
"XXXXXXXXXXXXXXXXXXXXXXXXXXX          XXXXXXXXXXXXXXXXXXXXXXXXXXX",
"XXXXXXXXXXXXXXXXXXXXXXXXXXX          XXXXXXXXXXXXXXXXXXXXXXXXXXX",
"XXXXXXXXXXXXXXXXXXXXXXXXXXX          XXXXXXXXXXXXXXXXXXXXXXXXXXX",
"XXXXXXXXXXXXXXXXXXXXXXXXXXX          XXXXXXXXXXXXXXXXXXXXXXXXXXX",
"XXXXXXXXXXXXXXXXXXXXXXXXXXX          XXXXXXXXXXXXXXXXXXXXXXXXXXX",
"XXXXXXXXXXXXXXXXXXXXXXXXXXX..XXXXXX..XXXXXXXXXXXXXXXXXXXXXXXXXXX",
"XXXXXXXXXXXXXXXXXXXXXXXXXXX..XXXXXX..XXXXXXXXXXXXXXXXXXXXXXXXXXX",
"XXXXXXXXXXXXXXXXXXXXXXXXXXX..XXXXXX..XXXXXXXXXXXXXXXXXXXXXXXXXXX",
"XXXXXXXXXXXXXXXXXXXXXXXXXXX..XXXXXX..XXXXXXXXXXXXXXXXXXXXXXXXXXX",
"XXXXXXXXXXXXXXXXXXXXXXXXXXX..XXXXXX..XXXXXXXXXXXXXXXXXXXXXXXXXXX",
"XXXXXXXXXXXXXXXXXXXXXXXXXXX..XXXXXX..XXXXXXXXXXXXXXXXXXXXXXXXXXX",
"XXXXXXXXXXXXXXXXXXXXXXXXXXX..XXXXXX..XXXXXXXXXXXXXXXXXXXXXXXXXXX"
};
