/* XPM */
static char *f5d12a6ac12d40d5f9274b9e3f88b4edZz3pDUoIQh43dJgo[] = {
/* columns rows colors chars-per-pixel */
"64 64 5 1 ",
"  c #403630",
". c #4A3C32",
"X c #564132",
"o c #6C4834",
"O c #8A5034",
/* pixels */
"XXXXX.ooXX. oXXXXXXXX.ooXX. oXXXXXXXX.ooXX. oXXXXXXXX.ooXX. oXXX",
"XXXXXo.oX.oo.ooXXXXXXo.oX.oo.ooXXXXXXo.oX.oo.ooXXXXXXo.oX.oo.ooX",
"oXXoo.X..XOoX.oXoXXoo.X..XOoX.oXoXXoo.X..XOoX.oXoXXoo.X..XOoX.oX",
".XXX.ooXX.XXX.oX.XXX.XoXX.XoX.oo.XXX.ooXX.XXX.oX.XXX.XoXX.XoX.oo",
"XXXXX.ooXXXoXX XXXXXXXooXXXooX oXXXXX.ooXXXoXX XXXXXXXooXXXooX o",
"XXooo.XXXXXXXXXXXXX.X. XXXXX  XXXXooo.XXXXXXXXXXXXX.X. XXXXX  XX",
"XXXoXXXXXXXoXXXXX...XXXXoXXXXXXXXXXoXXXXXXXoXXXXX...XXXXoXXXXXXX",
"XXXXXXX.oXXo.XXo.XXXXXXXXXX.XXoXXXXXXXX.oXXo.XXo.XXXXXXXXXX.XXoX",
"XoXX.XXXXX.o.XXoo.XXo.XX.. o X.oXoXX.XXXXX.o.XXoo.XXo.XX.. o X.o",
"oXoX.XXoXXX.XXXXXo.XXo.XXXXoo.X.oXoX.XXoXXX.XXXXXo.XXo.XXXXoo.X.",
".oo X.XoOXXXXX.X.XXXXo.XXXXo oXX.oo X.XoOXXXXX.X.XXXXo.XXXXo oXX",
"X  XXXXooO..XXXXXXo.XXXXXXXX.XXXX  XXXXooO..XXXXXXo.XXXXXXXX.XXX",
"XXXXXXXoXoo.XXXXoXo.XXXX..XX X XXXXXXXXoXoo.XXXXoXo.XXXX..XX X X",
"Xo X.XoXXX..XXoo.X.XXoXXX.XoXXX Xo X.XoXXX..XXoo.X.XXoXXX.XoXXX ",
"oo.XXXXX..XXX...XXXXo..XXoXXX. ooo.XXXXX..XXX...XXXXo..XXoXXX. o",
"X XXOXXXXXXXXXXXXXXo.XXXo.XXXX.XX XXOXXXXXXXXXXXXXXo.XXXo.XXXX.X",
"XXXXoX..ooXXXXoXXXXX.XXo..XXoXXXXXXXoX..ooXXXXoXXXXX.XXo..XXoXXX",
"XXXX.o.X.oooXoXXo.XXXXXXXXXX.XoXXXXX.o.X.oooXoXXo.XXXXXXXXXX.XoX",
"oXXXX.XX ...XXXXo.XXXo..XXXXX.oXoXXXX.XX ...XXXXo.XXXo..XXXXX.oX",
".XXXXXooXXXXXXXo.XXXXo.XXXXoX.oo.XXXXXooXXXXXXXo.XXXXo.XXXXoX.oo",
"XXooXXXoX. .XXo.XX.XX.XXXoXooX oXXooXXXoX. .XXo.XX.XX.XXXoXooX o",
"XXooo.XoXoO XX.XXXo ..XXoXXX  XXXXooo.XoXoO XX.XXXo ..XXoXXX  XX",
"XXXXooX.XXoo.XX.XXXooXXXoXXXXXXXXXXXooX.XXoo.XX.XXXooXXXoXXXXXXX",
"XXXXXoXXXXXX.XXo.XXXXXXXoXXX.XoXXXXXXoXXXXXX.XXo.XXXXXXXoXXX.XoX",
"XoXXXX XXXo Xoo.XXXXXooOXXXoXX.oXoXXXX XXXo Xoo.XXXXXooOXXXoXX.o",
"oXoX.oo XXo.X..XXXXXXXXXoXo oXX.oXoX.oo XXo.X..XXXXXXXXXoXo oXX.",
".oo X.Xo XXXXXXX.XoXXXXXXXXX oXX.oo X.Xo XXXXXXX.XoXXXXXXXXX oXX",
"X  XXXXooXXXXXXXX XXXXXoXXXX.XXXX  XXXXooXXXXXXXX XXXXXoXXXX.XXX",
"XXXXX XXo Xo XXXXXXXX XXX Xo X XXXXXX XXo Xo XXXXXXXX XXX Xo X X",
"Xo X.ooXXXXo XX XX X.ooXXXXo XX Xo X.ooXXXXo XX XX X.ooXXXXo XX ",
"oo..o.oXXXXXX. ooo..o.oXXXXXX. ooo..o.oXXXXXX. ooo..o.oXXXXXX. o",
"X XoOo.. X.X.X.XX XoOo.. X.X.X.XX XoOo.. X.X.X.XX XoOo.. X.X.X.X",
"XXXXX.ooXX. oXXXXXXXX.ooXX. oXXXXXXXX.ooXX. oXXXXXXXX.ooXX. oXXX",
"XXXXXo.oX.oo.ooXXXXXXo.oX.oo.ooXXXXXX.ooXX. oXXXXXXXX.ooXX. oXXX",
"oXXoo.X..XOoX.oXoXXoo.X..XOoX.oXXXXXXo.oX.oo.ooXXXXXXo.oX.oo.ooX",
".XXX.ooXX.XXX.oX.XXX.XoXX.XoX.oooXXoo.X..XOoX.oXoXXoo.X..XOoX.oX",
"XXXXX.ooXXXoXX XXXXXXXooXXXooX o.XXX.ooXX.XXX.oX.XXX.XoXX.XoX.oo",
"XXooo.XXXXXXXXXXXXX.X. XXXXX  XXXXXXX.ooXXXoXX XXXXXXXooXXXooX o",
"XXXoXXXXXXXoXXXXX...XXXXoXXXXXXXXXooo.XXXXXXXXXXXXX.X. XXXXX  XX",
"XXXXXXX.oXXo.XXo.XXXXXXXXXX.XXoXXXXoXXXXXXXoXXXXX...XXXXoXXXXXXX",
"XoXX.XXXXX.o.XXoo.XXo.XX.. o X.oXXXXXXX.oXXo.XXo.XXXXXXXXXX.XXoX",
"oXoX.XXoXXX.XXXXXo.XXo.XXXXoo.X.XoXX.XXXXX.o.XXoo.XXo.XX.. o X.o",
".oo X.XoOXXXXX.X.XXXXo.XXXXo oXXoXoX.XXoXXX.XXXXXo.XXo.XXXXoo.X.",
"X  XXXXooO..XXXXXXo.XXXXXXXX.XXX.oo X.XoOXXXXX.X.XXXXo.XXXXo oXX",
"XXXXXXXoXoo.XXXXoXo.XXXX..XX X XX  XXXXooO..XXXXXXo.XXXXXXXX.XXX",
"Xo X.XoXXX..XXoo.X.XXoXXX.XoXXX XXXXXXXoXoo.XXXXoXo.XXXX..XX X X",
"oo.XXXXX..XXX...XXXXo..XXoXXX. oXo X.XoXXX..XXoo.X.XXoXXX.XoXXX ",
"X XXOXXXXXXXXXXXXXXo.XXXo.XXXX.Xoo.XXXXX..XXX...XXXXo..XXoXXX. o",
"XXXXoX..ooXXXXoXXXXX.XXo..XXoXXXX XXOXXXXXXXXXXXXXXo.XXXo.XXXX.X",
"XXXX.o.X.oooXoXXo.XXXXXXXXXX.XoXXXXXoX..ooXXXXoXXXXX.XXo..XXoXXX",
"oXXXX.XX ...XXXXo.XXXo..XXXXX.oXXXXX.o.X.oooXoXXo.XXXXXXXXXX.XoX",
".XXXXXooXXXXXXXo.XXXXo.XXXXoX.oooXXXX.XX ...XXXXo.XXXo..XXXXX.oX",
"XXooXXXoX. .XXo.XX.XX.XXXoXooX o.XXXXXooXXXXXXXo.XXXXo.XXXXoX.oo",
"XXooo.XoXoO XX.XXXo ..XXoXXX  XXXXooXXXoX. .XXo.XX.XX.XXXoXooX o",
"XXXXooX.XXoo.XX.XXXooXXXoXXXXXXXXXooo.XoXoO XX.XXXo ..XXoXXX  XX",
"XXXXXoXXXXXX.XXo.XXXXXXXoXXX.XoXXXXXooX.XXoo.XX.XXXooXXXoXXXXXXX",
"XoXXXX XXXo Xoo.XXXXXooOXXXoXX.oXXXXXoXXXXXX.XXo.XXXXXXXoXXX.XoX",
"oXoX.oo XXo.X..XXXXXXXXXoXo oXX.XoXXXX XXXo Xoo.XXXXXooOXXXoXX.o",
".oo X.Xo XXXXXXX.XoXXXXXXXXX oXXoXoX.oo XXo.X..XXXXXXXXXoXo oXX.",
"X  XXXXooXXXXXXXX XXXXXoXXXX.XXX.oo X.Xo XXXXXXX.XoXXXXXXXXX oXX",
"XXXXX XXo Xo XXXXXXXX XXX Xo X XX  XXXXooXXXXXXXX XXXXXoXXXX.XXX",
"Xo X.ooXXXXo XX XX X.ooXXXXo XX XXXXX XXo Xo XXXXXXXX XXX Xo X X",
"oo..o.oXXXXXX. ooo..o.oXXXXXX. oXo X.ooXXXXo XX XX X.ooXXXXo XX ",
"X XoOo.. X.X.X.XX XoOo.. X.X.X.Xoo..o.oXXXXXX. ooo..o.oXXXXXX. o"
};
