/* XPM */
static char *_11ce80f4cd244dcdf2febb4e8d7f576ilpq3NYpipb62BaZ[] = {
/* columns rows colors chars-per-pixel */
"64 64 11 1 ",
"  c #191716",
". c #251923",
"X c #382623",
"o c #4C3324",
"O c #403630",
"+ c #4A3C32",
"@ c #564132",
"# c #6C4834",
"$ c #8A5034",
"% c #815C41",
"& c #B08B5A",
/* pixels */
"@@@@@+##@@+O#@@@@@@@@+##@@+O#@@@@@@@@+##@@+O#@@@@@@@@+##@@+O#@@@",
"@@@@@#+#@+##    @@@@@#+#@+          @#+#        .   @#+#@+##+##@",
"#@@#                          ...             .. .      +@$#@+#@",
"+@     .......................   .............  . ...      #@+##",
"@@   ..                  .              ..           ....   #@O#",
"@  ..      .   .    .     .       ..        .  .    .   X.   O@@",
"@ .   .                                                . X.  @@@",
"@ . .                                                     .  @#@",
"  .                                                      .X.  +#",
"  .                                                        X. @+",
"  . .                                                      ..  @",
" o.                                                         X. @",
" o.                                                        . .  ",
" o                                                          . . ",
" o                                                          . . ",
" o .                                                         X. ",
" o X.                                                        X. ",
" o X.                                                      . . @",
" o .                                                         . @",
"+ X.                                                        .  #",
"@ X.                                                       X. # ",
" X .                                                       . o# ",
" X X.                                                    .X. +$ ",
" o .     .            .                   .            .  . + o ",
" o X .                   . .    .     .                   . +o #",
" oX X   ....        .  ..X.X. ..X.       ....        .  .. ++. +",
" oXX X..XXXX.. ..  .X..X     .XX..X.  ...XXXX.. ..  .X..X  +  .@",
" +oX         X.XX        +#+X       ..XX      X.XX        +#+X @",
" ++ X   XX+#      #++### +#++ XX+#%      XX+#      #++### +#++ @",
"@  X+XX XX+# +++X ++++## +#++ XX++% X+XX XX+# +++X ++++## +#++ O",
"#  X+XX XX+# +++X ++++### ++X XX++# X+XX XX+# +++X ++++### ++X #",
"@   X+X X++# +++X ++++### ++.XXX+++# X+X X++# +++X ++++### ++.X ",
"@@  ++XXXX++# +XX #+++### +X X++ +#% ++XXXX++# +XX #+++### +X X ",
"@@  ++X  X.+# +X +X######++XXX##+ +# ++X  X.+# +X +X######++XXX ",
"# #++XXX ..++ +X ++XXX#$++++X+##+ +#++XXX ..++ +X ++XXX#$++++X+ ",
"+ ##+X.XX ..X++  ++++X#$& ++++##+X ##+X.XX ..X++  ++++X#$& +++ @",
"@ ++X.#XX ..Xo+  +X ++X#%+#+++##+X ++X.#XX ..Xo+  +X ++X#%+#++ #",
"@ +XX.#++  .Xo+X+#XX +X#$& +++##XX +XX.#++  .Xo+X+#XX +X#$& ++ #",
"@ X .#%++X .Xo+X+#XX ++X#% #+#++X +X .#%++X .Xo+X+#XX ++X#% #+ @",
"@@ .#X$+XX.Xo +o+#+X ++X##$ ++XX .X .#X$+XX.Xo +o+#+X ++X##$ ++ ",
"@# XX#%++X.Xo ++o#XX +++X##+XX...XXXXX#&++X.Xo ++o#XX +++X##+XX ",
"#@ XXX#%+X.X +++o#XX# +++XXo##XXX+#XXXX#%+X.X +++o#XX# +++XXo## ",
"+# XXXX$#X.X #++o#+o$ +X o+o$+++#+#+XXXX$#X.X #++o#+o$ +X o+o$+ ",
"@O XX XX#+X +#++o+o# ++. oo$% ++#o+%XX XX#+X +#++o+o# ++. oo$% @",
"@@ %% X#++++++#+o+#& ++. o#% +##+o+#%& X#++++++#+o+#$ ++. o#% @@",
"@ X##% X#++X++#+oo$ +#X.X+$ ooooo++X##% X#++X++#+oo$ +#X.X+$ o @",
"# X#$#.X#+..XX++o# +++.XXX+ oo+++#XX#$#.X#+..XX++o& +++.XXX+ o O",
"@ X#$#.X#+..XX++o# +++.XXX+ oo+++#XX#$#.X#+..XX++o& +++.XXX+ o #",
"@ +X#%.X#+..XoX+o$ +#XX+#+Xooo##XXX+X#%.X#+..XoX+o$ +#XX+#+Xoo @",
"@ XXX$.#++..ooo#++++#+X+#+XX+oXX  XXXX$.#++..ooo#++++#+X+#+XX+ @",
"#@ #%.+#++.Xo#o+##+#+XX+#XXX+X  XXX##%.+#++.Xo#o+##+#+XX+#XXX+ @",
"+@ # .+#+X.Xo#o++++++XXX++X+# XXX+XX# .+#+X.Xo#o++++++XXX++X+# @",
"@@  .++++X.Xo##+ ++++X+XXXX#X XX+X#X%.++++X.Xo##+ ++++X+XXXX#X##",
"@@# ++ +##X. %%+ +#+X.%#++XX X++ +X+.++ +##X. %%+ +#+X.%#++XX O#",
"@@@ ++ #XX#XX   +##+X.X#++X X+++ ++++++ #XX#XX   +##+X.X#++X O@@",
"@@@ + X%#XX#XXX++##+X..%#+X X++++ +#++ X%#XX#XXX++##+X..%#+X @@@",
"@#  + X#%+XX#XX+##+++..$##+ X+##+ +##+ X#%+XX#XX+##+++..$##+  #@",
"#  #+ X#%#++X#++##+#+X.X##++++##++ +#+ X#%#++X#++##+#+X.X##+++ #",
"+  + ..X#%##+X###++#+X..%##+X+++#+ ++ ..X#%##+X###++#+X..%##+X+ ",
"@  +  ..X#%++####+#++X .+#++X++++# ++  ..X#%++####+#++X .+#++X @",
"@@    ...XXX+++##+#+++ .X+++X+++++#+   ...XXX+++##+#+++ .X+++ @@",
"@#O@+##@..   XX#+      .XX++XX++++++  @@#..   XX#+      .XX  @O@",
"##++#+#@@@@@@+O  #++#+#@.... XXX++  +##@@@@#O@    O@+##@   #O@@O",
"@O@#$#++O@+@+@+@@O@#$#++O@+@+     ++#+#@@@@@@+O###++#+#@@@@@@+O#"
};
