/* XPM */
static char *e6e58bd500eb42bbdf92abfc538f0c91AKNDgC0uW676ARTP[] = {
/* columns rows colors chars-per-pixel */
"64 64 70 1 ",
"  c None",
". c black",
"X c #020200",
"o c #070600",
"O c #181600",
"+ c #1A1800",
"@ c #1E1C00",
"# c #332F00",
"$ c #343000",
"% c #383400",
"& c #443F00",
"* c #494300",
"= c #564F00",
"- c #5A5300",
"; c #5C5500",
": c #5E5700",
"> c #696100",
", c #6D6500",
"< c #756C00",
"1 c #766D00",
"2 c #786F00",
"3 c #867C00",
"4 c #897F00",
"5 c #8A8000",
"6 c #928700",
"7 c #968A00",
"8 c #9A8E00",
"9 c #9C9000",
"0 c #9D9100",
"q c #9E9200",
"w c #9F9300",
"e c #A29600",
"r c #B1A400",
"t c #B4A600",
"y c #B6A900",
"u c #B7A900",
"i c #B8AA00",
"p c #B8AB00",
"a c #BDAF00",
"s c #C0B100",
"d c #C8B900",
"f c #CABB00",
"g c #CBBC00",
"h c #CCBD00",
"j c #CDBE00",
"k c #D0C100",
"l c #D1C200",
"z c #D2C200",
"x c #D3C300",
"c c #D6C600",
"v c #DBCB00",
"b c #DDCC00",
"n c #DECD00",
"m c #DECE00",
"M c #DFCE00",
"N c #E1D000",
"B c #E4D300",
"V c #E7D600",
"C c #EAD800",
"Z c #EBDA00",
"A c #EFDE00",
"S c #F0DE00",
"D c #F1DF00",
"F c #F8E500",
"G c #F8E600",
"H c #F9E600",
"J c #FAE800",
"K c #FCE900",
"L c #FEEB00",
"P c #FFEC00",
/* pixels */
"                                                                ",
"                      PPPPPPPPPPPPPPPPPPPPPPPP                  ",
"                      PPPPPPPPPPPPPPPPPPPPPPPP                  ",
"                      PPPPPPPPPPPPPPPPPPPPPPPP                  ",
"                     PPPPPPPPPPPPPPPPPPPPPPPPPP                 ",
"                PPPPPPPPPPPPPPPPPPPPPPPPPPPPPPPPPPPP            ",
"               PPPPPPPPPPPPPPPPPPPPPPPPPPPPPPPPPPPPPP           ",
"              PPPPPPPPPPPPPPPPPPPPPPPPPPPPPPPPPPPPPPPP          ",
"             PPPPPPPPPPPPPPPPPPPPPPPPPPPPPPPPPPPPPPPPPP         ",
"            PPPPPPPPPPPPPPPPPPPPPPPPPPPPPPPPPPPPPPPPPPPP        ",
"           PPPPPPPPPPPPPPPPPPPPPPPPPPPPPPPPPPPPPPPPPPPPPP       ",
"          PPPPPPPPPPPANxddddhvVGPPPPPPPPPPPPPPPPPPPPPPPPPP      ",
"         PPPPPPPPPPPJmaw33336rzSPPPPPPPPPPPPPPPPPPPPPPPPPPP     ",
"        PPPPPPPPPPPPGg9>*&&&=3tVPPPPPPPPPPPPPPPPPPPPPPPPPPPPP   ",
"       PPPPPPPPPPPPPGp<$X...+:9mPPPPPPPPPPPPPPPPPPPPPPPPPPPPP   ",
"       PPPPPPPPPPPPKGy<$....O-9mPPPPPPPPPPPPPPPPPPPPPPPPPPPPP   ",
"       PPPPPPPPPPPPPGy<#....O-9mPPPPPPPPPPPPPPPPPPPPPPPPPPPPP   ",
"       PPPPPPPPPPPPPGy<#....O-8mPPPPPPPPPPPPPPPPPPPPPPPPPPPPP   ",
"       PPPPPPPPPPPPPGp2%oooo@:9NPPPPPPPPPPPPPPPPPPPPPPPPPPPPP   ",
"      PPPPPPPPPPPPPPJg9,****-5pVPPPPPPPPPPPPPPPPPPPPPPPPPPPPP   ",
"   PPPPPPPPPPPPPPPPPKvae55557tzSPPPPPPPPPPPPPPPPPPP             ",
"   PPPPPPPPPPPPPPPPPKFBchghhzmZGPPPPPPPPPPPPPPPPPP              ",
"   PPPPPPPPPPPPPPPPPPPPPPPPPPPPPPPPPPPPPPPPPPPPPP               ",
"   PPPPPPPPPPPPPPPPPPPPPPPPPPPPPPPPPPPPPPPPPPPPP                ",
"   PPPPPPPPPPPPPPPPPPPPPPPPPPPPPPPPPPPP                         ",
"   PPPPPPPPPPPPPPPPPPPPPPPPPPPPPPPPPPP                          ",
"   PPPPPPPPPPPPPPPPPPPPPPPPPPPPPPPPPPP                          ",
"   PPPPPPPPPPPPPPPPPPPPPPPPPPPPPPPPPP                           ",
"   PPPPPPPPPPPPPPPPPPPPPPPPPPPP                                 ",
"   PPPPPPPPPPPPPPPPPPPPPPPPPPP                                  ",
"   PPPPPPPPPPPPPPPPPPPPPPPPPPP                                  ",
"   PPPPPPPPPPPPPPPPPPPPPPPPPPP                                  ",
"   PPPPPPPPPPPPPPPPPPPPPPPPPPP                                  ",
"   PPPPPPPPPPPPPPPPPPPPPPPPPPP                                  ",
"   PPPPPPPPPPPPPPPPPPPPPPPPPPP                                  ",
"   PPPPPPPPPPPPPPPPPPPPPPPPPPPP                                 ",
"   PPPPPPPPPPPPPPPPPPPPPPPPPPPPPPPPPP                           ",
"   PPPPPPPPPPPPPPPPPPPPPPPPPPPPPPPPPPP                          ",
"   PPPPPPPPPPPPPPPPPPPPPPPPPPPPPPPPPPP                          ",
"   PPPPPPPPPPPPPPPPPPPPPPPPPPPPPPPPPPPP                         ",
"   PPPPPPPPPPPPPPPPPPPPPPPPPPPPPPPPPPPPPPPPPPPPPP               ",
"   PPPPPPPPPPPPPPPPPPPPPPPPPPPPPPPPPPPPPPPPPPPPPP               ",
"   PPPPPPPPPPPPPPPPPPPPPPPPPPPPPPPPPPPPPPPPPPPPPPP              ",
"   PPPPPPPPPPPPPPPPPPPPPPPPPPPPPPPPPPPPPPPPPPPPPPPP             ",
"      PPPPPPPPPPPPPPPPPPPPPPPPPPPPPPPPPPPPPPPPPPPPPPPPPPPPPPP   ",
"       PPPPPPPPPPPPPPPPPPPPPPPPPPPPPPPPPPPPPPPPPPPPPPPPPPPPPP   ",
"       PPPPPPPPPPPPPPPPPPPPPPPPPPPPPPPPPPPPPPPPPPPPPPPPPPPPPP   ",
"       PPPPPPPPPPPPPPPPPPPPPPPPPPPPPPPPPPPPPPPPPPPPPPPPPPPPPP   ",
"       PPPPPPPPPPPPPPPPPPPPPPPPPPPPPPPPPPPPPPPPPPPPPPPPPPPPPP   ",
"       PPPPPPPPPPPPPPPPPPPPPPPPPPPPPPPPPPPPPPPPPPPPPPPPPPPPPP   ",
"        PPPPPPPPPPPPPPPPPPPPPPPPPPPPPPPPPPPPPPPPPPPPPPPPPPPPP   ",
"         PPPPPPPPPPPPPPPPPPPPPPPPPPPPPPPPPPPPPPPPPPPPPPPPPP     ",
"          PPPPPPPPPPPPPPPPPPPPPPPPPPPPPPPPPPPPPPPPPPPPPPPP      ",
"           PPPPPPPPPPPPPPPPPPPPPPPPPPPPPPPPPPPPPPPPPPPPPP       ",
"            PPPPPPPPPPPPPPPPPPPPPPPPPPPPPPPPPPPPPPPPPPPP        ",
"             PPPPPPPPPPPPPPPPPPPPPPPPPPPPPPPPPPPPPPPPPP         ",
"              PPPPPPPPPPPPPPPPPPPPPPPPPPPPPPPPPPPPPPPP          ",
"               PPPPPPPPPPPPPPPPPPPPPPPPPPPPPPPPPPPPPP           ",
"                PPPPPPPPPPPPPPPPPPPPPPPPPPPPPPPPPPPP            ",
"                     PPPPPPPPPPPPPPPPPPPPPPPPPP                 ",
"                      PPPPPPPPPPPPPPPPPPPPPPPP                  ",
"                      PPPPPPPPPPPPPPPPPPPPPPPP                  ",
"                      PPPPPPPPPPPPPPPPPPPPPPPP                  ",
"                                                                "
};
