/* XPM */
static char *b4eb556e7afc4936a48ec099cd7189e1AcywaEbr3fIDgd5B[] = {
/* columns rows colors chars-per-pixel */
"64 64 6 1 ",
"  c None",
". c #523B40",
"X c #802954",
"o c #D01946",
"O c #E84444",
"+ c white",
/* pixels */
"                                                                ",
"                                                                ",
"            ooOO                                                ",
"            ooOO                                                ",
"            ooOOOO                                              ",
"            ooOOOO                                              ",
"          ooooOOOOOO                                            ",
"          ooooOOOOOO                                            ",
"          ooooOOOO++++                                          ",
"          ooooOOOO++++                                          ",
"        ooooooOO++++++++                      ooOO              ",
"        ooooooOO++++++++                      ooOO              ",
"        OOOOOO++++++++++++                  ooooOO              ",
"        OOOOOO++++++++++++                  ooooOO              ",
"      OOOOOOOO++++++++++++++              ooooOOOOOO            ",
"      OOOOOOOO++++++++++++++              ooooOOOOOO            ",
"      OOOOOOOOOO++++++++++OOOO          OOOOOO++OOOO            ",
"      OOOOOOOOOO++++++++++OOOO          OOOOOO++OOOO            ",
"    OOOOOOOOOOOO++++++++OOOOOO++      OOOOOO++++++OOOO          ",
"    OOOOOOOOOOOO++++++++OOOOOO++      OOOOOO++++++OOOO          ",
"    ooooOOOOOOOO++++OOOOOOOO++OO    OOOOOOOO++++++++OO          ",
"    ooooOOOOOOOO++++OOOOOOOO++OO    OOOOOOOO++++++++OO          ",
"  ooooooooooOOOO++OOOOOO++++OOOO  ooooooooOO++++++++++OO        ",
"  ooooooooooOOOO++OOOOOO++++OOOO  ooooooooOO++++++++++OO        ",
"  XXXXXXXXooooooOOOOOO++OOOOOOOO  XXXXooooOOOO++++++++++        ",
"  XXXXXXXXooooooOOOOOO++OOOOOOOO  XXXXooooOOOO++++++++++        ",
"  XXXXXXXXXXXXXXOOOO++OOOOOOOOOOOOXXXXXXOOOOOOOO++++++OO        ",
"  XXXXXXXXXXXXXXOOOO++OOOOOOOOOOOOXXXXXXOOOOOOOO++++++OO        ",
"    XXXXXXXXXXXX++++OOOOOOOOOOOOOOXXXXXXOOOOOOOOOO++++          ",
"    XXXXXXXXXXXX++++OOOOOOOOOOOOOOXXXXXXOOOOOOOOOO++++          ",
"    XXXXXXXXXXXXOOOOOOOOOOOOOOOOOOXXXXOOOOOOOOOOOOOOOO          ",
"    XXXXXXXXXXXXOOOOOOOOOOOOOOOOOOXXXXOOOOOOOOOOOOOOOO          ",
"      XXXXXXXXXXXXOOOOOOOOOOOOOOOOXXXXOOOOOOOOOOOOOO            ",
"      XXXXXXXXXXXXOOOOOOOOOOOOOOOOXXXXOOOOOOOOOOOOOO            ",
"      XXXXXXXXXXXXOOOOOOOOOOOOOOOOXXXXXXXXOOOOOOOOOO            ",
"      XXXXXXXXXXXXOOOOOOOOOOOOOOOOXXXXXXXXOOOOOOOOOO            ",
"        XXXX....XXOOOOOOOOOOOOOOooooOOOOooooXXOOOOXX....        ",
"        XXXX....XXOOOOOOOOOOOOOOooooOOOOooooXXOOOOXX....        ",
"        XXXX....XXXXOOOOOOOOOOooOOOO++++ooooooXXXXXX......      ",
"        XXXX....XXXXOOOOOOOOOOooOOOO++++ooooooXXXXXX......      ",
"        XXXXXXXXXXXXOOOOOOOOooOOOO++++++ooooooOOOOOOOO....      ",
"        XXXXXXXXXXXXOOOOOOOOooOOOO++++++ooooooOOOOOOOO....      ",
"          XXXXXX....XXooooooooOOOOOOOOOOooooooOOOOOOOOXX..      ",
"          XXXXXX....XXooooooooOOOOOOOOOOooooooOOOOOOOOXX..      ",
"          XXXX........XXXXooooOOOOOOOOooXXXXXXXXOOOOXXXX..      ",
"          XXXX........XXXXooooOOOOOOOOooXXXXXXXXOOOOXXXX..      ",
"          XXXX....ooOO..XXXXXXXXooooooXXXXXXXXooooOOXXXX..      ",
"          XXXX....ooOO..XXXXXXXXooooooXXXXXXXXooooOOXXXX..      ",
"            XX....oooo......XXooooooooXXXX..XXoooo..XX....      ",
"            XX....oooo......XXooooooooXXXX..XXoooo..XX....      ",
"            XXXX..........OOOO..ooooOOOOOOOOXXXXXX......        ",
"            XXXX..........OOOO..ooooOOOOOOOOXXXXXX......        ",
"            XXXXXX....OOOOOOOOOO....XXOOOOOOXXOOOO..            ",
"            XXXXXX....OOOOOOOOOO....XXOOOOOOXXOOOO..            ",
"                  XX..OOOOOOXXXXXXXX..XXOOOOXXOOOO              ",
"                  XX..OOOOOOXXXXXXXX..XXOOOOXXOOOO              ",
"                        ..XXXX..XXXX..XXXXOOXX....              ",
"                        ..XXXX..XXXX..XXXXOOXX....              ",
"                        ........XX..    XXXX....                ",
"                        ........XX..    XXXX....                ",
"                                ..      ....                    ",
"                                ..      ....                    ",
"                                                                ",
"                                                                "
};
