/* XPM */
static char *_fbe9348468d4610f94165661d4d3985ynysoPAFIxh7XqYc[] = {
/* columns rows colors chars-per-pixel */
"64 64 8 1 ",
"  c None",
". c #3D253B",
"X c #523B40",
"o c #56587B",
"O c #802954",
"+ c #895A45",
"@ c #BF704D",
"# c #A7ACBA",
/* pixels */
"                                                                ",
"                                                                ",
"ooooooooooXXXX   XXooooooXX        XXXX                         ",
"ooooooooooXXXX   XXooooooXX        XXXX                         ",
"XXooooooooooXXXXXXXXXooooooXXXXXXXXXXooooXX                     ",
"XXooooooooooXXXXXXXXXooooooXXXXXXXXXXooooXX                     ",
"oo###############################XXXXooooooXX                   ",
"oo###############################XXXXooooooXX                   ",
"oo###################################XXooooXX     XXoooooo##    ",
"oo###################################XXooooXX     XXoooooo##    ",
"ooXXooooooooooooooo####################XXXXXXXXXXXoooooo######  ",
"ooXXooooooooooooooo####################XXXXXXXXXXXoooooo######  ",
"XXooXXXXXXoo#############################XXXXXXXXXXXoo########  ",
"XXooXXXXXXoo#############################XXXXXXXXXXXoo########  ",
"XXXXXXXXoooo#############################XXXXXXXXXoo##########  ",
"XXXXXXXXoooo#############################XXXXXXXXXoo##########  ",
"XXXXXXXXXXooXXooooooooooooooo############XXXXooooo############  ",
"XXXXXXXXXXooXXooooooooooooooo############XXXXooooo############  ",
"XXXXXXXXXXooXXooooooooooooooo############XXXXooooo############  ",
"XXXXXXXXXXXXXXXXXXXXXooooXXXXooooooooooooXXoooo###############  ",
"XXXXXXXXXXXXXXXXXXXXXooooXXXXooooooooooooXXoooo###############  ",
"XXXXXX+++++++++++++++++++++++++++++++++++++++#################  ",
"XXXXXX+++++++++++++++++++++++++++++++++++++++#################  ",
"XXXXXX+++++++++++++++++++++++++++++++++++++++#################  ",
"XXXXXX+++++++++++++++++++++++++++++++++++++++#################  ",
"XXXXXX+++++++++++++++++++++++++++++++++++++++#################  ",
"XXXXXX+++++++++++++++++++++++++++++++++++++++#################  ",
"ooXXXXXX++++++XXX++++........XX++++++XX++++#################    ",
"ooXXXXXX++++++XXX++++........XX++++++XX++++#################    ",
"ooooXXXX+++++++++++..........XX..++++++++++#################    ",
"ooooXXXX+++++++++++..........XX..++++++++++#################    ",
"##ooXXXX+++++++++............XX..XX++++++++###############oo    ",
"##ooXXXX+++++++++............XX..XX++++++++###############oo    ",
"oo##XXXX++++++...............XX..XXXX++++++#############oo      ",
"oo##XXXX++++++...............XX..XXXX++++++#############oo      ",
"ooooXXXX++++++...............XX..XX@@@@++++#############oo      ",
"ooooXXXX++++++...............XX..XX@@@@++++#############oo      ",
"ooooXXXX++++++...............XX..XX@@@@@@@@###########oo        ",
"ooooXXXX++++++...............XX..XX@@@@@@@@###########oo        ",
"##ooXXXX++++++...............XX..XX@@@@OO@@@@@@#######          ",
"##ooXXXX++++++...............XX..XX@@@@OO@@@@@@#######          ",
"ooooXXXX++++++...............XX..XX@@OOOO@@OO@@@@@              ",
"ooooXXXX++++++...............XX..XX@@OOOO@@OO@@@@@              ",
"ooooXXXX++++++...............XX..XX@@OOOOOOOO@@#####            ",
"ooooXXXX++++++...............XX..XX@@OOOOOOOO@@#####            ",
"##ooXXXX++++++...............XX..XX@@@@@@OO@@@@#########        ",
"##ooXXXX++++++...............XX..XX@@@@@@OO@@@@#########        ",
"####ooXX++++++...............XX..XXXX++@@@@@@@@###########      ",
"####ooXX++++++...............XX..XXXX++@@@@@@@@###########      ",
"####ooXX++++++...............XX..XXXX++@@@@@@@@###########      ",
"####ooXX++++++...............XX..XXXX++++++@@@@###########      ",
"####ooXX++++++...............XX..XXXX++++++@@@@###########      ",
"oo##ooXX++++++...............XX..XXXX++++++oo###############    ",
"oo##ooXX++++++...............XX..XXXX++++++oo###############    ",
"##ooooXX++++++...............XX..XXXX++++++ooooooooo########    ",
"##ooooXX++++++...............XX..XXXX++++++ooooooooo########    ",
"ooooooXX++++++...............XX..XXXX++++++ooooooooooooooooo    ",
"ooooooXX++++++...............XX..XXXX++++++ooooooooooooooooo    ",
"ooXXXXXX++++++...............XX..XXXX++++++XXXXooooooooooooo    ",
"ooXXXXXX++++++...............XX..XXXX++++++XXXXooooooooooooo    ",
"ooXXXXXX++++++.............oooo..XXXX++++++XXXXXXXoooooooooo    ",
"ooXXXXXX++++++.............oooo..XXXX++++++XXXXXXXoooooooooo    ",
"ooXXXXXX++++++.............ooooooXXXX++++++XXXXXXXXXXXXXoo      ",
"ooXXXXXX++++++.............ooooooXXXX++++++XXXXXXXXXXXXXoo      "
};
