/* XPM */
static char *_2e2a7c6ff0e4e18d3cf4b00df76685bQbyLg5plEu1DmZtX[] = {
/* columns rows colors chars-per-pixel */
"64 64 23 1 ",
"  c None",
". c #2F2F2E",
"X c #624023",
"o c #6F4827",
"O c #69483A",
"+ c #463A46",
"@ c #4D404D",
"# c #50565D",
"$ c #9D7A4F",
"% c #916451",
"& c #D67941",
"* c #B38F64",
"= c #D7B84D",
"- c #E59363",
"; c #FFC078",
": c #4C5F80",
"> c #6E9FBA",
", c #9299A4",
"< c #B0AAAA",
"1 c #C6C4C4",
"2 c #D4D4D7",
"3 c gray87",
"4 c #CAE5E6",
/* pixels */
"                                                                ",
"                                                                ",
"                                                                ",
"                                                                ",
"                                                                ",
"                         &&                                     ",
"                         &&                                     ",
"                      &&&==&&&                                  ",
"                      &&&==&&&                                  ",
"                      &&&==&&&                                  ",
"                    ..333..333..                                ",
"                    ..333..333..                                ",
"                    ..<<<33111..                                ",
"                    ..<<<33111..                                ",
"                    ..<<<33111..                                ",
"                    ..<<<11111..                                ",
"                    ..<<<11111..                                ",
"                 ...<<11111111<<..                              ",
"                 ...<<11111111<<..                              ",
"                 ...<<11111111<<..                              ",
"  ........       ...111111133311<<...                           ",
"  ........       ...111111133311<<...                           ",
"..,,,22222..   ..>>>>>>>><<33344<<...                           ",
"..,,,22222..   ..>>>>>>>><<33344<<...                           ",
"..,,,22222..   ..>>>>>>>><<33344<<...                           ",
"..,,,,,22222...::>>>>>>>>>>:::44>>:::..                         ",
"..,,,,,22222...::>>>>>>>>>>:::44>>:::..                         ",
"..,,,,,,,,##...:::::>>>>>>>:::44>>>>>..                         ",
"..,,,,,,,,##...:::::>>>>>>>:::44>>>>>..                         ",
"..,,,,,,,,##...:::::>>>>>>>:::44>>>>>..                         ",
"  ...,,###XX...:::::::>>>>>:::>>::>>>..                         ",
"  ...,,###XX...:::::::>>>>>:::>>::>>>..                         ",
"     ..........:::::::::::::::>>:::::..                         ",
"     ..........:::::::::::::::>>:::::..                         ",
"  ...ooooooo...:::::...................          ........       ",
"  ...ooooooo...:::::...................          ........       ",
"  ...ooooooo...:::::...................          ........       ",
"  ...XXXXX..ooo.....OO%%%OO---;;;;%%%.....       ...>>:::..     ",
"  ...XXXXX..ooo.....OO%%%OO---;;;;%%%.....       ...>>:::..     ",
"  ...XX...;;;;;oo@@@++OOO%%%%%%%%%OOOoo;;;..        ..>>>44...  ",
"  ...XX...;;;;;oo@@@++OOO%%%%%%%%%OOOoo;;;..        ..>>>44...  ",
"  ...XX...;;;;;oo@@@++OOO%%%%%%%%%OOOoo;;;..        ..>>>44...  ",
"  .....;;;;;---oo@@@OO%%%%%OOOOO%%%%%OO;;;;;.....   ..44444...  ",
"  .....;;;;;---oo@@@OO%%%%%OOOOO%%%%%OO;;;;;.....   ..44444...  ",
"  ...::;;;--oooXX@@@OO%%%OO%%%%%OO%%%OO---;;>>>--.....444::...  ",
"  ...::;;;--oooXX@@@OO%%%OO%%%%%OO%%%OO---;;>>>--.....444::...  ",
"  ...::;;;--oooXX@@@OO%%%OO%%%%%OO%%%OO---;;>>>--.....444::...  ",
"..;;;;;>>>--XXX++@@@OOOOOOO%%%%%OOOOOOO---::---*******>>>**$$$..",
"..;;;;;>>>--XXX++@@@OOOOOOO%%%%%OOOOOOO---::---*******>>>**$$$..",
"..;;;-->>>.....++@@@+++++OOOOOOOOO+++.....::---.......>>>::...  ",
"..;;;-->>>.....++@@@+++++OOOOOOOOO+++.....::---.......>>>::...  ",
"..;;;-->>>.....++@@@+++++OOOOOOOOO+++.....::---.......>>>::...  ",
"  ........XX...>>>>>>>>>>::OOOOO::>>>..   .....     ..>>>44...  ",
"  ........XX...>>>>>>>>>>::OOOOO::>>>..   .....     ..>>>44...  ",
"     ..........ooooooooooXX%%%%%ooooo..             ..444::...  ",
"     ..........ooooooooooXX%%%%%ooooo..             ..444::...  ",
"     ..........ooooooooooXX%%%%%ooooo..             ..444::...  ",
"            ...oooooXXXXXXXXXXXXooooo..          ...>>:::..     ",
"            ...oooooXXXXXXXXXXXXooooo..          ...>>:::..     ",
"            ...XXXXX............XXXXX..          ........       ",
"            ...XXXXX............XXXXX..          ........       ",
"            ...XXXXX............XXXXX..          ........       ",
"               .....            .....                           ",
"               .....            .....                           "
};
