/* XPM */
static char *result[] = {
/* columns rows colors chars-per-pixel */
"64 64 8 1 ",
"  c yellow",
". c #FDFB06",
"X c #DABE5C",
"o c #D6B766",
"O c #D9BC60",
"+ c #CEAA7A",
"@ c #C39696",
"# c None",
/* pixels */
"################################################################",
"################################################################",
"################################################################",
"################################################################",
"################################################@###############",
"###############################################@@@##############",
"###############################################@@###############",
"##############################################@@################",
"##########@##################################@@#################",
"##########@@@###############################+@@#################",
"###########@@@############################# .X########@@########",
"############@@@##############  ###########    #######@@#########",
"#############@@O#############   ##########      ####@@@#########",
"##############o  ###########     ########        ##@@@##########",
"#####@########     ########       ######          o@@###########",
"####@@@######       ######          ###            O############",
"#####@@@####         ####            #             #############",
"#######@@@##          ###                         ##############",
"########@@X                                       ##############",
"#########+.                                      ###############",
"##########                                      ################",
"###########                                    #################",
"#############                                 ##################",
"##############                                ##################",
"###############                               ##################",
"################                                ################",
"#################                                ###############",
"################                                  ##############",
"###############                                    #############",
"###############                                      ###########",
"##############                                       ###########",
"#############                                       ############",
"############                                       #############",
"###########                                       ##############",
"###########                                      ###############",
"#############                                    ###############",
"##############                                  ################",
"###############                                #################",
"################                                ################",
"##################                               ###############",
"##################                                ##############",
"##################                                 #############",
"#################                                    ###########",
"################                                      ##########",
"###############                                      .+#########",
"##############                                       X@@########",
"##############                         ###          ##@@@#######",
"#############             #            ####         ####@@@#####",
"############O            ###          ######       ######@@@####",
"###########@@o          ######       ########     ########@#####",
"##########@@@##        ########     ###########  o##############",
"#########@@@####      ##########   #############O@@#############",
"#########@@#######    ###########  ##############@@@############",
"########@@########X. #############################@@@###########",
"#################@@+###############################@@@##########",
"#################@@##################################@##########",
"################@@##############################################",
"###############@@###############################################",
"##############@@@###############################################",
"###############@################################################",
"################################################################",
"################################################################",
"################################################################",
"################################################################"
};
