/* XPM */
static char *_cbd252dfdb94974964dd629ef61fba21fkhhp6Mkt9Ns2VU[] = {
/* columns rows colors chars-per-pixel */
"64 64 8 1 ",
"  c None",
". c #3D253B",
"X c #523B40",
"o c #56587B",
"O c #802954",
"+ c #895A45",
"@ c #BF704D",
"# c #A7ACBA",
/* pixels */
"                                                                ",
"                                                                ",
"                         XXXX        XXooooooXX   XXXXoooooooooo",
"                         XXXX        XXooooooXX   XXXXoooooooooo",
"                     XXooooXXXXXXXXXXooooooXXXXXXXXXooooooooooXX",
"                     XXooooXXXXXXXXXXooooooXXXXXXXXXooooooooooXX",
"                   XXooooooXXXX###############################oo",
"                   XXooooooXXXX###############################oo",
"    ##ooooooXX     XXooooXX###################################oo",
"    ##ooooooXX     XXooooXX###################################oo",
"  ######ooooooXXXXXXXXXXX####################oooooooooooooooXXoo",
"  ######ooooooXXXXXXXXXXX####################oooooooooooooooXXoo",
"  ########ooXXXXXXXXXXX#############################ooXXXXXXooXX",
"  ########ooXXXXXXXXXXX#############################ooXXXXXXooXX",
"  ##########ooXXXXXXXXX#############################ooooXXXXXXXX",
"  ##########ooXXXXXXXXX#############################ooooXXXXXXXX",
"  ############oooooXXXX############oooooooooooooooXXooXXXXXXXXXX",
"  ############oooooXXXX############oooooooooooooooXXooXXXXXXXXXX",
"  ############oooooXXXX############oooooooooooooooXXooXXXXXXXXXX",
"  ###############ooooXXooooooooooooXXXXooooXXXXXXXXXXXXXXXXXXXXX",
"  ###############ooooXXooooooooooooXXXXooooXXXXXXXXXXXXXXXXXXXXX",
"  #################+++++++++++++++++++++++++++++++++++++++XXXXXX",
"  #################+++++++++++++++++++++++++++++++++++++++XXXXXX",
"  #################+++++++++++++++++++++++++++++++++++++++XXXXXX",
"  #################+++++++++++++++++++++++++++++++++++++++XXXXXX",
"  #################+++++++++++++++++++++++++++++++++++++++XXXXXX",
"  #################+++++++++++++++++++++++++++++++++++++++XXXXXX",
"    #################++++XX++++++XX........++++XXX++++++XXXXXXoo",
"    #################++++XX++++++XX........++++XXX++++++XXXXXXoo",
"    #################++++++++++..XX..........+++++++++++XXXXoooo",
"    #################++++++++++..XX..........+++++++++++XXXXoooo",
"    oo###############++++++++XX..XX............+++++++++XXXXoo##",
"    oo###############++++++++XX..XX............+++++++++XXXXoo##",
"      oo#############++++++XXXX..XX...............++++++XXXX##oo",
"      oo#############++++++XXXX..XX...............++++++XXXX##oo",
"      oo#############++++@@@@XX..XX...............++++++XXXXoooo",
"      oo#############++++@@@@XX..XX...............++++++XXXXoooo",
"        oo###########@@@@@@@@XX..XX...............++++++XXXXoooo",
"        oo###########@@@@@@@@XX..XX...............++++++XXXXoooo",
"          #######@@@@@@OO@@@@XX..XX...............++++++XXXXoo##",
"          #######@@@@@@OO@@@@XX..XX...............++++++XXXXoo##",
"              @@@@@OO@@OOOO@@XX..XX...............++++++XXXXoooo",
"              @@@@@OO@@OOOO@@XX..XX...............++++++XXXXoooo",
"            #####@@OOOOOOOO@@XX..XX...............++++++XXXXoooo",
"            #####@@OOOOOOOO@@XX..XX...............++++++XXXXoooo",
"        #########@@@@OO@@@@@@XX..XX...............++++++XXXXoo##",
"        #########@@@@OO@@@@@@XX..XX...............++++++XXXXoo##",
"      ###########@@@@@@@@++XXXX..XX...............++++++XXoo####",
"      ###########@@@@@@@@++XXXX..XX...............++++++XXoo####",
"      ###########@@@@@@@@++XXXX..XX...............++++++XXoo####",
"      ###########@@@@++++++XXXX..XX...............++++++XXoo####",
"      ###########@@@@++++++XXXX..XX...............++++++XXoo####",
"    ###############oo++++++XXXX..XX...............++++++XXoo##oo",
"    ###############oo++++++XXXX..XX...............++++++XXoo##oo",
"    ########ooooooooo++++++XXXX..XX...............++++++XXoooo##",
"    ########ooooooooo++++++XXXX..XX...............++++++XXoooo##",
"    ooooooooooooooooo++++++XXXX..XX...............++++++XXoooooo",
"    ooooooooooooooooo++++++XXXX..XX...............++++++XXoooooo",
"    oooooooooooooXXXX++++++XXXX..XX...............++++++XXXXXXoo",
"    oooooooooooooXXXX++++++XXXX..XX...............++++++XXXXXXoo",
"    ooooooooooXXXXXXX++++++XXXX..oooo.............++++++XXXXXXoo",
"    ooooooooooXXXXXXX++++++XXXX..oooo.............++++++XXXXXXoo",
"      ooXXXXXXXXXXXXX++++++XXXXoooooo.............++++++XXXXXXoo",
"      ooXXXXXXXXXXXXX++++++XXXXoooooo.............++++++XXXXXXoo"
};
